<svg xmlns="http://www.w3.org/2000/svg" viewBox="0 0 53.59 25.5"><defs><style>.cls-1{fill:#1d1d1b;}</style></defs><g id="Layer_2" data-name="Layer 2"><g id="Layer_3" data-name="Layer 3"><path class="cls-1" d="M7.05,9.23c-2,0-3.48,1.53-3.48,4.4,0,2.18,1,4.38,3.51,4.38,2,0,3.48-1.53,3.48-4.38,0-1.88-.81-4.4-3.51-4.4m6.67,11.83A2.63,2.63,0,0,1,10.85,19a5.17,5.17,0,0,1-4.44,2.21,5.79,5.79,0,0,1-4.61-2A8.07,8.07,0,0,1,0,13.66a10.29,10.29,0,0,1,.46-3.1,6.59,6.59,0,0,1,6.1-4.73,4.82,4.82,0,0,1,4,2V6.27H14V16.54c0,1.24.29,1.45.84,1.45a2.31,2.31,0,0,0,.79-.15v2.93a7,7,0,0,1-1.92.29"/><path class="cls-1" d="M27.78,10.91h-.44V8.44h.26a3.05,3.05,0,0,0,3.34-3.16c0-1.6-1-2.55-2.84-2.55C25.57,2.73,25,5,25,6.7v6.67c0,2,.79,4.35,3.63,4.35A3.16,3.16,0,0,0,32,14.53c0-2.52-1.13-3.62-4.23-3.62M21.54,25.24v-18C21.54,2.44,24,0,28.1,0s6.15,2.06,6.15,5a4.25,4.25,0,0,1-3.31,4.35c3.31.58,4.64,2.58,4.64,5.39a6,6,0,0,1-6.44,6.18A4.85,4.85,0,0,1,25,19v6.24Z"/><path class="cls-1" d="M48.43,20.77V25.5H45V20.77l-3.19-9.89c-.44-1.33-.53-1.5-1.57-1.5h-.58V6.27h1.48c2.38,0,3.07.73,3.77,3.25l1.94,7L50,6.27h3.63Z"/></g></g></svg>