<?xml version="1.0" encoding="utf-8"?>
<!-- Generator: Adobe Illustrator 24.2.0, SVG Export Plug-In . SVG Version: 6.00 Build 0)  -->
<svg version="1.1" id="Layer_1" xmlns="http://www.w3.org/2000/svg" xmlns:xlink="http://www.w3.org/1999/xlink" x="0px" y="0px"
	 viewBox="0 0 122.6 122.6" style="enable-background:new 0 0 122.6 122.6;" xml:space="preserve">
<style type="text/css">
	.st0{clip-path:url(#SVGID_2_);}
</style>
<g id="Layer_2_1_">
	<g id="Layer_3">
		<g>
			<defs>
				<rect id="SVGID_1_" width="122.6" height="122.6"/>
			</defs>
			<clipPath id="SVGID_2_">
				<use xlink:href="#SVGID_1_"  style="overflow:visible;"/>
			</clipPath>
			<g class="st0">
				<path d="M61.3,4.3c-31.5,0-57,25.5-57,57s25.5,57,57,57s57-25.5,57-57C118.2,29.8,92.8,4.3,61.3,4.3 M61.3,122.6
					C27.4,122.6,0,95.2,0,61.3S27.4,0,61.3,0s61.3,27.4,61.3,61.3C122.6,95.1,95.1,122.6,61.3,122.6"/>
			</g>
		</g>
	</g>
</g>
<g>
	<g>
		<polygon points="59.5,89.5 24.7,63.2 28.1,58.8 58.3,81.7 93.4,33.2 97.9,36.4 		"/>
	</g>
</g>
</svg>
